<svg width="75" height="62" viewBox="0 0 75 62" fill="none" xmlns="http://www.w3.org/2000/svg">
<path d="M73.5791 20.4729C74.1504 19.9724 75 20.4406 75 21.2318V54.25C75 58.5286 71.8506 62 67.9687 62H7.03125C3.14941 62 0 58.5286 0 54.25V21.2479C0 20.4406 0.834961 19.9885 1.4209 20.4891C4.70215 23.2984 9.05273 26.8667 23.9941 38.8307C27.085 41.3172 32.2998 46.5484 37.5 46.5161C42.7295 46.5646 48.0469 41.2203 51.0205 38.8307C65.9619 26.8667 70.2978 23.2823 73.5791 20.4729ZM37.5 41.3333C40.8984 41.3979 45.791 36.6188 48.2519 34.649C67.6904 19.1005 69.1699 17.7443 73.6523 13.8693C74.5019 13.1427 75 12.0125 75 10.8177V7.75C75 3.47135 71.8506 0 67.9687 0H7.03125C3.14941 0 0 3.47135 0 7.75V10.8177C0 12.0125 0.498047 13.1266 1.34766 13.8693C5.83008 17.7281 7.30957 19.1005 26.748 34.649C29.209 36.6188 34.1016 41.3979 37.5 41.3333Z" fill="white"/>
</svg>
